<?xml version="1.0" encoding="UTF-8" standalone="no"?>
<svg
   xmlns:dc="http://purl.org/dc/elements/1.1/"
   xmlns:cc="http://creativecommons.org/ns#"
   xmlns:rdf="http://www.w3.org/1999/02/22-rdf-syntax-ns#"
   xmlns:svg="http://www.w3.org/2000/svg"
   xmlns="http://www.w3.org/2000/svg"
   xmlns:sodipodi="http://sodipodi.sourceforge.net/DTD/sodipodi-0.dtd"
   xmlns:inkscape="http://www.inkscape.org/namespaces/inkscape"
   viewBox="0 0 20.060779 20.06078"
   version="1.1"
   id="svg92"
   sodipodi:docname="transcode-s3-logo.svg"
   inkscape:version="0.92.4 (5da689c313, 2019-01-14)"
   width="20.06078"
   height="20.06078">
  <metadata
     id="metadata98">
    <rdf:RDF>
      <cc:Work
         rdf:about="">
        <dc:format>image/svg+xml</dc:format>
        <dc:type
           rdf:resource="http://purl.org/dc/dcmitype/StillImage" />
        <dc:title />
      </cc:Work>
    </rdf:RDF>
  </metadata>
  <defs
     id="defs96" />
  <sodipodi:namedview
     pagecolor="#ffffff"
     bordercolor="#666666"
     borderopacity="1"
     objecttolerance="10"
     gridtolerance="10"
     guidetolerance="10"
     inkscape:pageopacity="0"
     inkscape:pageshadow="2"
     inkscape:window-width="1920"
     inkscape:window-height="1016"
     id="namedview94"
     showgrid="false"
     inkscape:zoom="35.5"
     inkscape:cx="5.0625794"
     inkscape:cy="10.014086"
     inkscape:window-x="1366"
     inkscape:window-y="27"
     inkscape:window-maximized="1"
     inkscape:current-layer="svg92"
     fit-margin-top="0"
     fit-margin-left="0"
     fit-margin-right="0"
     fit-margin-bottom="0" />
  <path
     d="m 15.676242,6.370638 a 6,6 0 0 0 -11.3400001,0 5,5 0 0 0 -3.08,8.27 1,1 0 1 0 1.5,-1.27 3,3 0 0 1 2.25,-5 h 0.1 a 1,1 0 0 0 1,-0.8 4,4 0 0 1 7.8400001,0 1,1 0 0 0 1,0.8 h 0.06 a 3,3 0 0 1 2.25,5 1,1 0 0 0 0.09,1.42 1,1 0 0 0 0.66,0.25 1,1 0 0 0 0.75,-0.34 5,5 0 0 0 -3.08,-8.33 z"
     id="path86"
     inkscape:connector-curvature="0"
     style="display:inline;fill:#02d9e3;fill-opacity:1"
     inkscape:label="cloud"
     inkscape:export-xdpi="5837.9023"
     inkscape:export-ydpi="5837.9023" />
  <path
     style="display:inline;fill:#0215e3;fill-opacity:1;stroke-width:0.53990608"
     inkscape:connector-curvature="0"
     d="m 5.1712372,9.765474 v 6.759625 a 1.4793427,1.4793427 0 0 0 1.479343,1.479343 h 6.7596238 a 1.4793427,1.4793427 0 0 0 1.479342,-1.479343 V 9.765474 A 1.4793427,1.4793427 0 0 0 13.410204,8.286131 H 6.6505802 a 1.4793427,1.4793427 0 0 0 -1.479343,1.479343 z m 4.3192477,6.079343 v 1.079812 h -1.079812 v -1.079812 z m 1.0798131,1.079812 v -1.079812 h 1.079812 v 1.079812 z M 6.2510492,14.765005 v -3.239437 h 7.5586848 v 3.239437 z M 9.4904849,9.365944 v 1.079812 H 8.4106729 V 9.365944 Z m 1.0798131,1.079812 V 9.365944 h 1.079812 v 1.079812 z M 6.6505802,9.365944 h 0.680281 v 1.079812 H 6.2510492 V 9.765474 a 0.39953051,0.39953051 0 0 1 0.399531,-0.39953 z m -0.399531,7.159155 v -0.680282 h 1.079812 v 1.079812 h -0.680281 a 0.39953051,0.39953051 0 0 1 -0.399531,-0.39953 z m 7.1591548,0.39953 h -0.680282 v -1.079812 h 1.079812 v 0.680282 a 0.39953051,0.39953051 0 0 1 -0.39953,0.39953 z m 0,-7.558685 a 0.39953051,0.39953051 0 0 1 0.39953,0.39953 v 0.680282 H 12.729922 V 9.365944 Z"
     id="path102"
     inkscape:label="film"
     inkscape:export-xdpi="5837.9023"
     inkscape:export-ydpi="5837.9023" />
</svg>
